<svg xmlns="http://www.w3.org/2000/svg" xmlns:xlink="http://www.w3.org/1999/xlink" width="160" height="160" viewBox="0 0 160 160">
  <defs>
    <style>
      .cls-1 {
        fill: #f5f8f7;
        opacity: 0.05;
      }

      .cls-2 {
        fill: #595959;
      }

      .cls-3 {
        fill: url(#linear-gradient);
      }

      .cls-4 {
        fill: #30363b;
      }

      .cls-5 {
        filter: url(#Path_97);
      }

      .cls-6 {
        filter: url(#Path_95);
      }
    </style>
    <linearGradient id="linear-gradient" x1="0.5" x2="0.5" y2="1" gradientUnits="objectBoundingBox">
      <stop offset="0" stop-color="#998675"/>
      <stop offset="1" stop-color="#4d433b"/>
    </linearGradient>
    <filter id="Path_95" x="14.957" y="53.475" width="71.234" height="60.399" filterUnits="userSpaceOnUse">
      <feOffset dy="3" input="SourceAlpha"/>
      <feGaussianBlur stdDeviation="3" result="blur"/>
      <feFlood flood-opacity="0.161"/>
      <feComposite operator="in" in2="blur"/>
      <feComposite in="SourceGraphic"/>
    </filter>
    <filter id="Path_97" x="83.442" y="17.876" width="59.591" height="51.231" filterUnits="userSpaceOnUse">
      <feOffset dy="3" input="SourceAlpha"/>
      <feGaussianBlur stdDeviation="3" result="blur-2"/>
      <feFlood flood-opacity="0.161"/>
      <feComposite operator="in" in2="blur-2"/>
      <feComposite in="SourceGraphic"/>
    </filter>
  </defs>
  <g id="Group_134" data-name="Group 134" transform="translate(-0.349)">
    <rect id="Rectangle_215" data-name="Rectangle 215" class="cls-1" width="160" height="160" rx="10" transform="translate(0.349)"/>
    <g id="Layer_2" data-name="Layer 2" transform="translate(15 23)">
      <g id="Layer_1" data-name="Layer 1">
        <g id="Group_133" data-name="Group 133" transform="translate(10.79 57.692)">
          <path id="Path_87" data-name="Path 87" class="cls-2" d="M11.21,114.24c1.17-1.18,2.32-2.39,3.51-3.58s2.39-2.36,3.64-3.51l2.29,2.73q-2,1.49-3.9,3.05L12.82,116Z" transform="translate(-11.21 -66.732)"/>
          <path id="Path_88" data-name="Path 88" class="cls-2" d="M26.43,100.72A38,38,0,0,1,36,96.12l1.41,4.94A37.349,37.349,0,0,0,33,102.5a40.368,40.368,0,0,0-4.26,2Z" transform="translate(-11.21 -65.298)"/>
          <path id="Path_89" data-name="Path 89" class="cls-2" d="M46.64,94.55a24.1,24.1,0,0,1,2.69.1c.89.1,1.72.18,2.57.28l5,.65-.86,5.76-4.87-.69c-.8-.1-1.65-.25-2.4-.33s-1.53-.15-2.3-.19Z" transform="translate(-11.21 -65.088)"/>
          <path id="Path_90" data-name="Path 90" class="cls-2" d="M66.82,97c3.26.42,6.53.92,9.61,1l-.2,6c-1.8-.06-3.52-.22-5.22-.41s-3.38-.42-5-.68Z" transform="translate(-11.21 -65.278)"/>
          <path id="Path_91" data-name="Path 91" class="cls-2" d="M85.19,96.85a28.2,28.2,0,0,0,7.93-4.35l3.35,4.22a32.51,32.51,0,0,1-9.33,5.57Z" transform="translate(-11.21 -65.115)"/>
          <path id="Path_92" data-name="Path 92" class="cls-2" d="M100.18,86.05c2.25-2.33,4.4-4.81,6.49-7.36l3.38,2.58c-2,2.75-4,5.46-6.21,8.08Z" transform="translate(-11.21 -64.134)"/>
          <path id="Path_93" data-name="Path 93" class="cls-2" d="M112.84,70.92c1-1.33,2-2.67,3-4l3-4,1.89,1.24-2.54,4.33c-.85,1.45-1.74,2.87-2.6,4.31Z" transform="translate(-11.21 -62.92)"/>
        </g>
        <g class="cls-6" transform="matrix(1, 0, 0, 1, -14.65, -23)">
          <path id="Path_95-2" data-name="Path 95" class="cls-3" d="M9.74,78.4V48.1a5.91,5.91,0,0,1,4.92-6.24c5.84-1.22,11.4-.49,16.42,3A22.72,22.72,0,0,1,38.18,53a25.21,25.21,0,0,0,5.43,7.24A16.85,16.85,0,0,0,56.83,64.3c2.06-.19,4.08-.7,6.13-1.06a12.18,12.18,0,0,1-1.44,5.52A31.33,31.33,0,0,1,49,81.41a17.12,17.12,0,0,1-16.19.51,50.639,50.639,0,0,0-10-3.75,19,19,0,0,0-9.24.23A5.74,5.74,0,0,1,9.74,78.4Z" transform="translate(14.23 18.16)"/>
        </g>
        <path id="Path_96" data-name="Path 96" class="cls-4" d="M4.41,82.19v39.5c0,1.93-.28,2.35-1.58,2.35H1.52c-.7,0-1.06-.6-1.1-1.64V42.54c0-2,.26-2.39,1.6-2.39H3.33c.67.06,1,.6,1.08,1.6V82.19Z" transform="translate(-0.42 -9.04)"/>
        <g class="cls-5" transform="matrix(1, 0, 0, 1, -14.65, -23)">
          <path id="Path_97-2" data-name="Path 97" class="cls-3" d="M119.79,30.5V6.81a4.62,4.62,0,0,0-3.86-4.88A16,16,0,0,0,103.1,4.24a17.62,17.62,0,0,0-5.55,6.39,19.91,19.91,0,0,1-4.24,5.66A13.2,13.2,0,0,1,83,19.46c-1.61-.15-3.19-.55-4.79-.83A9.55,9.55,0,0,0,79.3,23a24.59,24.59,0,0,0,9.78,9.9,13.4,13.4,0,0,0,12.66.4,39.1,39.1,0,0,1,7.86-2.93,14.83,14.83,0,0,1,7.22.18,4.54,4.54,0,0,0,2.97-.05Z" transform="translate(14.23 22.41)"/>
        </g>
        <path id="Path_98" data-name="Path 98" class="cls-4" d="M124.22,28.39V54.52c0,1.28.28,1.55,1.56,1.55h1.29A1,1,0,0,0,128.16,55V2.17c0-1.32-.27-1.58-1.59-1.58h-1.3a1,1,0,0,0-1,1,5,5,0,0,0,0,.55Z" transform="translate(-0.42 -0.59)"/>
      </g>
    </g>
  </g>
</svg>
